<mxfile host="app.diagrams.net" modified="2024-01-23T21:07:42.114Z" agent="Mozilla/5.0 (Macintosh; Intel Mac OS X 10_15_7) AppleWebKit/537.36 (KHTML, like Gecko) Chrome/120.0.0.0 Safari/537.36" etag="DWgjtqBaZB5WPLbCznjX" version="22.1.22" type="github" pages="2">
  <diagram name="Page-1" id="LsjGqvZL1-sbHVoTEgp4">
    <mxGraphModel dx="1133" dy="755" grid="1" gridSize="10" guides="1" tooltips="1" connect="1" arrows="1" fold="1" page="1" pageScale="1" pageWidth="850" pageHeight="1100" math="1" shadow="0">
      <root>
        <mxCell id="0" />
        <mxCell id="1" parent="0" />
        <mxCell id="g3u8cm_EE9jy6rwPvGY0-1" value="Human Hints" style="text;html=1;strokeColor=none;fillColor=none;align=center;verticalAlign=middle;whiteSpace=wrap;rounded=0;" parent="1" vertex="1">
          <mxGeometry x="90" y="30" width="80" height="30" as="geometry" />
        </mxCell>
        <mxCell id="g3u8cm_EE9jy6rwPvGY0-30" style="edgeStyle=orthogonalEdgeStyle;rounded=0;orthogonalLoop=1;jettySize=auto;html=1;exitX=0.5;exitY=1;exitDx=0;exitDy=0;" parent="1" source="g3u8cm_EE9jy6rwPvGY0-2" target="g3u8cm_EE9jy6rwPvGY0-5" edge="1">
          <mxGeometry relative="1" as="geometry" />
        </mxCell>
        <mxCell id="g3u8cm_EE9jy6rwPvGY0-2" value="Binomial Opinion" style="text;html=1;strokeColor=none;fillColor=none;align=center;verticalAlign=middle;whiteSpace=wrap;rounded=0;" parent="1" vertex="1">
          <mxGeometry x="80" y="110" width="100" height="30" as="geometry" />
        </mxCell>
        <mxCell id="g3u8cm_EE9jy6rwPvGY0-5" value="$$\kappa$$" style="text;html=1;strokeColor=none;fillColor=none;align=center;verticalAlign=middle;whiteSpace=wrap;rounded=0;" parent="1" vertex="1">
          <mxGeometry x="100" y="205" width="60" height="30" as="geometry" />
        </mxCell>
        <mxCell id="g3u8cm_EE9jy6rwPvGY0-6" value="Discrete Policy Gradient" style="text;html=1;strokeColor=none;fillColor=none;align=center;verticalAlign=middle;whiteSpace=wrap;rounded=0;" parent="1" vertex="1">
          <mxGeometry x="345" y="740" width="90" height="30" as="geometry" />
        </mxCell>
        <mxCell id="g3u8cm_EE9jy6rwPvGY0-7" value="binomial opinions" style="rounded=1;whiteSpace=wrap;html=1;fillColor=#FFCC99;" parent="1" vertex="1">
          <mxGeometry x="330" y="190" width="120" height="60" as="geometry" />
        </mxCell>
        <mxCell id="g3u8cm_EE9jy6rwPvGY0-9" value="$$\kappa =$$" style="text;html=1;strokeColor=none;fillColor=none;align=center;verticalAlign=middle;whiteSpace=wrap;rounded=0;" parent="1" vertex="1">
          <mxGeometry x="270" y="205" width="60" height="30" as="geometry" />
        </mxCell>
        <mxCell id="g3u8cm_EE9jy6rwPvGY0-10" value="numerical preferences" style="rounded=1;whiteSpace=wrap;html=1;fillColor=#A9C4EB;" parent="1" vertex="1">
          <mxGeometry x="330" y="560" width="120" height="60" as="geometry" />
        </mxCell>
        <mxCell id="g3u8cm_EE9jy6rwPvGY0-11" value="$$\theta =$$" style="text;html=1;strokeColor=none;fillColor=none;align=center;verticalAlign=middle;whiteSpace=wrap;rounded=0;" parent="1" vertex="1">
          <mxGeometry x="270" y="575" width="60" height="30" as="geometry" />
        </mxCell>
        <mxCell id="g3u8cm_EE9jy6rwPvGY0-12" value="probabilities" style="rounded=1;whiteSpace=wrap;html=1;fillColor=#97D077;" parent="1" vertex="1">
          <mxGeometry x="140" y="460" width="120" height="60" as="geometry" />
        </mxCell>
        <mxCell id="g3u8cm_EE9jy6rwPvGY0-13" value="$$\theta _{\text{prob}2}=$$" style="text;html=1;strokeColor=none;fillColor=none;align=center;verticalAlign=middle;whiteSpace=wrap;rounded=0;" parent="1" vertex="1">
          <mxGeometry x="80" y="475" width="60" height="30" as="geometry" />
        </mxCell>
        <mxCell id="g3u8cm_EE9jy6rwPvGY0-14" value="probabilities" style="rounded=1;whiteSpace=wrap;html=1;fillColor=#97D077;" parent="1" vertex="1">
          <mxGeometry x="480" y="460" width="120" height="60" as="geometry" />
        </mxCell>
        <mxCell id="g3u8cm_EE9jy6rwPvGY0-15" value="$$\theta _{\text{prob}1}=$$" style="text;html=1;strokeColor=none;fillColor=none;align=center;verticalAlign=middle;whiteSpace=wrap;rounded=0;" parent="1" vertex="1">
          <mxGeometry x="420" y="475" width="60" height="30" as="geometry" />
        </mxCell>
        <mxCell id="g3u8cm_EE9jy6rwPvGY0-16" value="binomial opinions" style="rounded=1;whiteSpace=wrap;html=1;fillColor=#FFCE9F;" parent="1" vertex="1">
          <mxGeometry x="135" y="300" width="125" height="65" as="geometry" />
        </mxCell>
        <mxCell id="g3u8cm_EE9jy6rwPvGY0-17" value="$$\iota =$$" style="text;html=1;strokeColor=none;fillColor=none;align=center;verticalAlign=middle;whiteSpace=wrap;rounded=0;" parent="1" vertex="1">
          <mxGeometry x="80" y="315" width="60" height="30" as="geometry" />
        </mxCell>
        <mxCell id="g3u8cm_EE9jy6rwPvGY0-18" value="binomial opinions" style="rounded=1;whiteSpace=wrap;html=1;fillColor=#FFCC99;" parent="1" vertex="1">
          <mxGeometry x="480" y="305" width="120" height="60" as="geometry" />
        </mxCell>
        <mxCell id="g3u8cm_EE9jy6rwPvGY0-19" value="$$\theta _\text{opinion}=$$" style="text;html=1;strokeColor=none;fillColor=none;align=center;verticalAlign=middle;whiteSpace=wrap;rounded=0;" parent="1" vertex="1">
          <mxGeometry x="420" y="320" width="60" height="30" as="geometry" />
        </mxCell>
        <mxCell id="g3u8cm_EE9jy6rwPvGY0-20" value="" style="endArrow=classic;html=1;rounded=0;entryX=0.5;entryY=1;entryDx=0;entryDy=0;" parent="1" edge="1">
          <mxGeometry width="50" height="50" relative="1" as="geometry">
            <mxPoint x="145" y="219.57" as="sourcePoint" />
            <mxPoint x="270" y="220.04999999999998" as="targetPoint" />
          </mxGeometry>
        </mxCell>
        <mxCell id="g3u8cm_EE9jy6rwPvGY0-21" value="" style="endArrow=classic;html=1;rounded=0;" parent="1" edge="1">
          <mxGeometry width="50" height="50" relative="1" as="geometry">
            <mxPoint x="470" y="590" as="sourcePoint" />
            <mxPoint x="540" y="530" as="targetPoint" />
            <Array as="points" />
          </mxGeometry>
        </mxCell>
        <mxCell id="g3u8cm_EE9jy6rwPvGY0-22" value="" style="endArrow=classic;html=1;rounded=0;" parent="1" edge="1">
          <mxGeometry width="50" height="50" relative="1" as="geometry">
            <mxPoint x="539.52" y="440" as="sourcePoint" />
            <mxPoint x="539.52" y="380" as="targetPoint" />
            <Array as="points" />
          </mxGeometry>
        </mxCell>
        <mxCell id="g3u8cm_EE9jy6rwPvGY0-23" value="" style="endArrow=classic;html=1;rounded=0;" parent="1" edge="1">
          <mxGeometry width="50" height="50" relative="1" as="geometry">
            <mxPoint x="200" y="380" as="sourcePoint" />
            <mxPoint x="200" y="450" as="targetPoint" />
            <Array as="points" />
          </mxGeometry>
        </mxCell>
        <mxCell id="g3u8cm_EE9jy6rwPvGY0-24" value="" style="endArrow=classic;html=1;rounded=0;" parent="1" edge="1">
          <mxGeometry width="50" height="50" relative="1" as="geometry">
            <mxPoint x="200" y="530" as="sourcePoint" />
            <mxPoint x="270" y="590" as="targetPoint" />
            <Array as="points" />
          </mxGeometry>
        </mxCell>
        <mxCell id="g3u8cm_EE9jy6rwPvGY0-25" value="" style="endArrow=classic;html=1;rounded=0;exitX=0.5;exitY=1;exitDx=0;exitDy=0;" parent="1" source="g3u8cm_EE9jy6rwPvGY0-7" edge="1">
          <mxGeometry width="50" height="50" relative="1" as="geometry">
            <mxPoint x="380" y="390" as="sourcePoint" />
            <mxPoint x="280" y="320" as="targetPoint" />
          </mxGeometry>
        </mxCell>
        <mxCell id="g3u8cm_EE9jy6rwPvGY0-26" value="" style="endArrow=classic;html=1;rounded=0;exitX=0.25;exitY=1;exitDx=0;exitDy=0;" parent="1" source="g3u8cm_EE9jy6rwPvGY0-18" edge="1">
          <mxGeometry width="50" height="50" relative="1" as="geometry">
            <mxPoint x="530" y="380" as="sourcePoint" />
            <mxPoint x="280" y="365" as="targetPoint" />
          </mxGeometry>
        </mxCell>
        <mxCell id="g3u8cm_EE9jy6rwPvGY0-29" value="" style="endArrow=classic;html=1;rounded=0;exitX=0.5;exitY=1;exitDx=0;exitDy=0;" parent="1" source="g3u8cm_EE9jy6rwPvGY0-1" target="g3u8cm_EE9jy6rwPvGY0-2" edge="1">
          <mxGeometry width="50" height="50" relative="1" as="geometry">
            <mxPoint x="490" y="390" as="sourcePoint" />
            <mxPoint x="540" y="340" as="targetPoint" />
          </mxGeometry>
        </mxCell>
        <mxCell id="g3u8cm_EE9jy6rwPvGY0-43" value="3.2" style="text;html=1;align=center;verticalAlign=middle;resizable=0;points=[];autosize=1;strokeColor=none;fillColor=none;" parent="1" vertex="1">
          <mxGeometry x="495" y="568" width="40" height="30" as="geometry" />
        </mxCell>
        <mxCell id="g3u8cm_EE9jy6rwPvGY0-44" value="3.3" style="text;html=1;align=center;verticalAlign=middle;resizable=0;points=[];autosize=1;strokeColor=none;fillColor=none;" parent="1" vertex="1">
          <mxGeometry x="545" y="390" width="40" height="30" as="geometry" />
        </mxCell>
        <mxCell id="g3u8cm_EE9jy6rwPvGY0-45" value="3.4" style="text;html=1;align=center;verticalAlign=middle;resizable=0;points=[];autosize=1;strokeColor=none;fillColor=none;" parent="1" vertex="1">
          <mxGeometry x="265" y="330" width="40" height="30" as="geometry" />
        </mxCell>
        <mxCell id="g3u8cm_EE9jy6rwPvGY0-46" value="3.5" style="text;html=1;align=center;verticalAlign=middle;resizable=0;points=[];autosize=1;strokeColor=none;fillColor=none;" parent="1" vertex="1">
          <mxGeometry x="155" y="398" width="40" height="30" as="geometry" />
        </mxCell>
        <mxCell id="g3u8cm_EE9jy6rwPvGY0-47" value="3.6" style="text;html=1;align=center;verticalAlign=middle;resizable=0;points=[];autosize=1;strokeColor=none;fillColor=none;" parent="1" vertex="1">
          <mxGeometry x="185" y="550" width="40" height="30" as="geometry" />
        </mxCell>
        <mxCell id="g3u8cm_EE9jy6rwPvGY0-48" value="" style="curved=1;endArrow=classic;html=1;rounded=0;exitX=1;exitY=0.5;exitDx=0;exitDy=0;" parent="1" edge="1">
          <mxGeometry width="50" height="50" relative="1" as="geometry">
            <mxPoint x="410" y="735" as="sourcePoint" />
            <mxPoint x="410" y="630" as="targetPoint" />
            <Array as="points">
              <mxPoint x="440" y="680" />
            </Array>
          </mxGeometry>
        </mxCell>
        <mxCell id="g3u8cm_EE9jy6rwPvGY0-49" value="" style="curved=1;endArrow=classic;html=1;rounded=0;exitX=1;exitY=0.5;exitDx=0;exitDy=0;" parent="1" edge="1">
          <mxGeometry width="50" height="50" relative="1" as="geometry">
            <mxPoint x="370" y="630" as="sourcePoint" />
            <mxPoint x="370" y="735" as="targetPoint" />
            <Array as="points">
              <mxPoint x="340" y="680" />
            </Array>
          </mxGeometry>
        </mxCell>
        <mxCell id="kTOtuXMPXJSkDzbhlfC--2" value="3.1" style="text;html=1;align=center;verticalAlign=middle;resizable=0;points=[];autosize=1;strokeColor=none;fillColor=none;" parent="1" vertex="1">
          <mxGeometry x="177.5" y="190" width="40" height="30" as="geometry" />
        </mxCell>
      </root>
    </mxGraphModel>
  </diagram>
  <diagram id="xjNDVN1in0paXz5avpfR" name="Page-2">
    <mxGraphModel dx="1133" dy="755" grid="1" gridSize="10" guides="1" tooltips="1" connect="1" arrows="1" fold="1" page="1" pageScale="1" pageWidth="850" pageHeight="1100" math="0" shadow="0">
      <root>
        <mxCell id="0" />
        <mxCell id="1" parent="0" />
      </root>
    </mxGraphModel>
  </diagram>
</mxfile>
